<?xml version="1.0" standalone="no"?>
<!DOCTYPE svg PUBLIC "-//W3C//DTD SVG 20010904//EN"
 "http://www.w3.org/TR/2001/REC-SVG-20010904/DTD/svg10.dtd">
<svg version="1.0" xmlns="http://www.w3.org/2000/svg"
 width="128.000000pt" height="128.000000pt" viewBox="0 0 128.000000 128.000000"
 preserveAspectRatio="xMidYMid meet">

<g transform="translate(0.000000,128.000000) scale(0.100000,-0.100000)"
fill="#00A44D" stroke="none">
<path d="M501 1265 c-110 -24 -226 -89 -311 -175 -250 -250 -252 -649 -5 -895
122 -121 256 -183 419 -192 292 -16 560 170 649 452 31 99 31 271 0 370 -101
318 -428 510 -752 440z m245 -76 c98 -17 210 -78 288 -155 219 -220 219 -569
-1 -789 -219 -219 -568 -218 -788 3 -270 269 -194 722 148 891 118 58 225 73
353 50z"/>
<path d="M332 668 c-16 -16 -15 -43 2 -57 9 -8 100 -11 311 -9 271 3 299 5
309 21 8 12 8 22 0 35 -10 15 -38 17 -310 20 -225 2 -303 -1 -312 -10z"/>
</g>
</svg>
